<mxfile host="app.diagrams.net" modified="2023-11-08T14:19:00.368Z" agent="Mozilla/5.0 (Macintosh; Intel Mac OS X 10_15_7) AppleWebKit/605.1.15 (KHTML, like Gecko) Version/17.0 Safari/605.1.15" etag="9HfT1p97sTOLJCWVojRy" version="22.0.8" type="github">
  <diagram name="Page-1" id="2kIWHCX9EmGJ44qLht0y">
    <mxGraphModel dx="984" dy="644" grid="1" gridSize="10" guides="1" tooltips="1" connect="1" arrows="1" fold="1" page="1" pageScale="1" pageWidth="827" pageHeight="1169" math="0" shadow="0">
      <root>
        <mxCell id="0" />
        <mxCell id="1" parent="0" />
        <mxCell id="IzR-FZCqbxqnZNjVjUYu-78" value="TRRUST" style="swimlane;fontStyle=0;childLayout=stackLayout;horizontal=1;startSize=20;horizontalStack=0;resizeParent=1;resizeParentMax=0;resizeLast=0;collapsible=0;marginBottom=0;swimlaneFillColor=#ffffff;whiteSpace=wrap;fillColor=#b1ddf0;strokeColor=#10739e;" vertex="1" parent="1">
          <mxGeometry x="50" y="30" width="230" height="120" as="geometry" />
        </mxCell>
        <mxCell id="IzR-FZCqbxqnZNjVjUYu-95" value="" style="shape=table;startSize=0;container=1;collapsible=0;childLayout=tableLayout;" vertex="1" parent="IzR-FZCqbxqnZNjVjUYu-78">
          <mxGeometry y="20" width="230" height="100" as="geometry" />
        </mxCell>
        <mxCell id="IzR-FZCqbxqnZNjVjUYu-96" value="" style="shape=tableRow;horizontal=0;startSize=0;swimlaneHead=0;swimlaneBody=0;strokeColor=inherit;top=0;left=0;bottom=0;right=0;collapsible=0;dropTarget=0;fillColor=none;points=[[0,0.5],[1,0.5]];portConstraint=eastwest;" vertex="1" parent="IzR-FZCqbxqnZNjVjUYu-95">
          <mxGeometry width="230" height="50" as="geometry" />
        </mxCell>
        <mxCell id="IzR-FZCqbxqnZNjVjUYu-97" value="TF" style="shape=partialRectangle;html=1;connectable=0;strokeColor=inherit;overflow=hidden;fillColor=none;top=0;left=0;bottom=0;right=0;pointerEvents=1;whiteSpace=wrap;" vertex="1" parent="IzR-FZCqbxqnZNjVjUYu-96">
          <mxGeometry width="58" height="50" as="geometry">
            <mxRectangle width="58" height="50" as="alternateBounds" />
          </mxGeometry>
        </mxCell>
        <mxCell id="IzR-FZCqbxqnZNjVjUYu-98" value="Target" style="shape=partialRectangle;html=1;whiteSpace=wrap;connectable=0;strokeColor=inherit;overflow=hidden;fillColor=none;top=0;left=0;bottom=0;right=0;pointerEvents=1;" vertex="1" parent="IzR-FZCqbxqnZNjVjUYu-96">
          <mxGeometry x="58" width="57" height="50" as="geometry">
            <mxRectangle width="57" height="50" as="alternateBounds" />
          </mxGeometry>
        </mxCell>
        <mxCell id="IzR-FZCqbxqnZNjVjUYu-99" value="Interaction" style="shape=partialRectangle;html=1;whiteSpace=wrap;connectable=0;strokeColor=inherit;overflow=hidden;fillColor=none;top=0;left=0;bottom=0;right=0;pointerEvents=1;" vertex="1" parent="IzR-FZCqbxqnZNjVjUYu-96">
          <mxGeometry x="115" width="95" height="50" as="geometry">
            <mxRectangle width="95" height="50" as="alternateBounds" />
          </mxGeometry>
        </mxCell>
        <mxCell id="IzR-FZCqbxqnZNjVjUYu-100" value="..." style="shape=partialRectangle;html=1;whiteSpace=wrap;connectable=0;strokeColor=inherit;overflow=hidden;fillColor=none;top=0;left=0;bottom=0;right=0;pointerEvents=1;" vertex="1" parent="IzR-FZCqbxqnZNjVjUYu-96">
          <mxGeometry x="210" width="20" height="50" as="geometry">
            <mxRectangle width="20" height="50" as="alternateBounds" />
          </mxGeometry>
        </mxCell>
        <mxCell id="IzR-FZCqbxqnZNjVjUYu-101" value="" style="shape=tableRow;horizontal=0;startSize=0;swimlaneHead=0;swimlaneBody=0;strokeColor=inherit;top=0;left=0;bottom=0;right=0;collapsible=0;dropTarget=0;fillColor=none;points=[[0,0.5],[1,0.5]];portConstraint=eastwest;" vertex="1" parent="IzR-FZCqbxqnZNjVjUYu-95">
          <mxGeometry y="50" width="230" height="50" as="geometry" />
        </mxCell>
        <mxCell id="IzR-FZCqbxqnZNjVjUYu-102" value=".." style="shape=partialRectangle;html=1;whiteSpace=wrap;connectable=0;strokeColor=inherit;overflow=hidden;fillColor=none;top=0;left=0;bottom=0;right=0;pointerEvents=1;" vertex="1" parent="IzR-FZCqbxqnZNjVjUYu-101">
          <mxGeometry width="58" height="50" as="geometry">
            <mxRectangle width="58" height="50" as="alternateBounds" />
          </mxGeometry>
        </mxCell>
        <mxCell id="IzR-FZCqbxqnZNjVjUYu-103" value=".." style="shape=partialRectangle;html=1;whiteSpace=wrap;connectable=0;strokeColor=inherit;overflow=hidden;fillColor=none;top=0;left=0;bottom=0;right=0;pointerEvents=1;" vertex="1" parent="IzR-FZCqbxqnZNjVjUYu-101">
          <mxGeometry x="58" width="57" height="50" as="geometry">
            <mxRectangle width="57" height="50" as="alternateBounds" />
          </mxGeometry>
        </mxCell>
        <mxCell id="IzR-FZCqbxqnZNjVjUYu-104" value="Activation/&lt;br&gt;Repression/&lt;br&gt;Unknown" style="shape=partialRectangle;html=1;connectable=0;strokeColor=inherit;overflow=hidden;fillColor=none;top=0;left=0;bottom=0;right=0;pointerEvents=1;whiteSpace=wrap;" vertex="1" parent="IzR-FZCqbxqnZNjVjUYu-101">
          <mxGeometry x="115" width="95" height="50" as="geometry">
            <mxRectangle width="95" height="50" as="alternateBounds" />
          </mxGeometry>
        </mxCell>
        <mxCell id="IzR-FZCqbxqnZNjVjUYu-105" value="..&lt;br&gt;" style="shape=partialRectangle;html=1;whiteSpace=wrap;connectable=0;strokeColor=inherit;overflow=hidden;fillColor=none;top=0;left=0;bottom=0;right=0;pointerEvents=1;" vertex="1" parent="IzR-FZCqbxqnZNjVjUYu-101">
          <mxGeometry x="210" width="20" height="50" as="geometry">
            <mxRectangle width="20" height="50" as="alternateBounds" />
          </mxGeometry>
        </mxCell>
        <mxCell id="IzR-FZCqbxqnZNjVjUYu-79" value="..&lt;br&gt;..&lt;br&gt;..&lt;br&gt;" style="html=1;dashed=0;whiteSpace=wrap;shape=mxgraph.dfd.externalEntity" vertex="1" parent="1">
          <mxGeometry x="100" y="440" width="100" height="100" as="geometry" />
        </mxCell>
        <mxCell id="IzR-FZCqbxqnZNjVjUYu-80" value="TF" style="autosize=1;part=1;resizable=0;strokeColor=inherit;fillColor=inherit;gradientColor=inherit;" vertex="1" parent="IzR-FZCqbxqnZNjVjUYu-79">
          <mxGeometry width="40" height="30" relative="1" as="geometry">
            <mxPoint x="5" y="10" as="offset" />
          </mxGeometry>
        </mxCell>
        <mxCell id="IzR-FZCqbxqnZNjVjUYu-106" value="" style="endArrow=classic;html=1;rounded=0;exitX=0.475;exitY=1.043;exitDx=0;exitDy=0;exitPerimeter=0;" edge="1" parent="1">
          <mxGeometry width="50" height="50" relative="1" as="geometry">
            <mxPoint x="159.25" y="160.00000000000009" as="sourcePoint" />
            <mxPoint x="159" y="207.85" as="targetPoint" />
            <Array as="points">
              <mxPoint x="159" y="197.85" />
            </Array>
          </mxGeometry>
        </mxCell>
        <mxCell id="IzR-FZCqbxqnZNjVjUYu-107" value="TRRUST" style="swimlane;fontStyle=0;childLayout=stackLayout;horizontal=1;startSize=20;fillColor=#b1ddf0;horizontalStack=0;resizeParent=1;resizeParentMax=0;resizeLast=0;collapsible=0;marginBottom=0;swimlaneFillColor=#ffffff;whiteSpace=wrap;strokeColor=#10739e;" vertex="1" parent="1">
          <mxGeometry x="50" y="220" width="230" height="120" as="geometry" />
        </mxCell>
        <mxCell id="IzR-FZCqbxqnZNjVjUYu-108" value="" style="shape=table;startSize=0;container=1;collapsible=0;childLayout=tableLayout;" vertex="1" parent="IzR-FZCqbxqnZNjVjUYu-107">
          <mxGeometry y="20" width="230" height="100" as="geometry" />
        </mxCell>
        <mxCell id="IzR-FZCqbxqnZNjVjUYu-109" value="" style="shape=tableRow;horizontal=0;startSize=0;swimlaneHead=0;swimlaneBody=0;strokeColor=inherit;top=0;left=0;bottom=0;right=0;collapsible=0;dropTarget=0;fillColor=none;points=[[0,0.5],[1,0.5]];portConstraint=eastwest;" vertex="1" parent="IzR-FZCqbxqnZNjVjUYu-108">
          <mxGeometry width="230" height="50" as="geometry" />
        </mxCell>
        <mxCell id="IzR-FZCqbxqnZNjVjUYu-110" value="TF" style="shape=partialRectangle;html=1;connectable=0;strokeColor=inherit;overflow=hidden;fillColor=none;top=0;left=0;bottom=0;right=0;pointerEvents=1;whiteSpace=wrap;" vertex="1" parent="IzR-FZCqbxqnZNjVjUYu-109">
          <mxGeometry width="58" height="50" as="geometry">
            <mxRectangle width="58" height="50" as="alternateBounds" />
          </mxGeometry>
        </mxCell>
        <mxCell id="IzR-FZCqbxqnZNjVjUYu-111" value="Target" style="shape=partialRectangle;html=1;whiteSpace=wrap;connectable=0;strokeColor=inherit;overflow=hidden;fillColor=none;top=0;left=0;bottom=0;right=0;pointerEvents=1;" vertex="1" parent="IzR-FZCqbxqnZNjVjUYu-109">
          <mxGeometry x="58" width="57" height="50" as="geometry">
            <mxRectangle width="57" height="50" as="alternateBounds" />
          </mxGeometry>
        </mxCell>
        <mxCell id="IzR-FZCqbxqnZNjVjUYu-112" value="Interaction" style="shape=partialRectangle;html=1;whiteSpace=wrap;connectable=0;strokeColor=inherit;overflow=hidden;fillColor=none;top=0;left=0;bottom=0;right=0;pointerEvents=1;" vertex="1" parent="IzR-FZCqbxqnZNjVjUYu-109">
          <mxGeometry x="115" width="95" height="50" as="geometry">
            <mxRectangle width="95" height="50" as="alternateBounds" />
          </mxGeometry>
        </mxCell>
        <mxCell id="IzR-FZCqbxqnZNjVjUYu-113" value="..." style="shape=partialRectangle;html=1;whiteSpace=wrap;connectable=0;strokeColor=inherit;overflow=hidden;fillColor=none;top=0;left=0;bottom=0;right=0;pointerEvents=1;" vertex="1" parent="IzR-FZCqbxqnZNjVjUYu-109">
          <mxGeometry x="210" width="20" height="50" as="geometry">
            <mxRectangle width="20" height="50" as="alternateBounds" />
          </mxGeometry>
        </mxCell>
        <mxCell id="IzR-FZCqbxqnZNjVjUYu-114" value="" style="shape=tableRow;horizontal=0;startSize=0;swimlaneHead=0;swimlaneBody=0;strokeColor=inherit;top=0;left=0;bottom=0;right=0;collapsible=0;dropTarget=0;fillColor=none;points=[[0,0.5],[1,0.5]];portConstraint=eastwest;" vertex="1" parent="IzR-FZCqbxqnZNjVjUYu-108">
          <mxGeometry y="50" width="230" height="50" as="geometry" />
        </mxCell>
        <mxCell id="IzR-FZCqbxqnZNjVjUYu-115" value=".." style="shape=partialRectangle;html=1;whiteSpace=wrap;connectable=0;strokeColor=inherit;overflow=hidden;fillColor=none;top=0;left=0;bottom=0;right=0;pointerEvents=1;" vertex="1" parent="IzR-FZCqbxqnZNjVjUYu-114">
          <mxGeometry width="58" height="50" as="geometry">
            <mxRectangle width="58" height="50" as="alternateBounds" />
          </mxGeometry>
        </mxCell>
        <mxCell id="IzR-FZCqbxqnZNjVjUYu-116" value=".." style="shape=partialRectangle;html=1;whiteSpace=wrap;connectable=0;strokeColor=inherit;overflow=hidden;fillColor=none;top=0;left=0;bottom=0;right=0;pointerEvents=1;" vertex="1" parent="IzR-FZCqbxqnZNjVjUYu-114">
          <mxGeometry x="58" width="57" height="50" as="geometry">
            <mxRectangle width="57" height="50" as="alternateBounds" />
          </mxGeometry>
        </mxCell>
        <mxCell id="IzR-FZCqbxqnZNjVjUYu-117" value="Activation/&lt;br&gt;Repression" style="shape=partialRectangle;html=1;connectable=0;strokeColor=inherit;overflow=hidden;fillColor=none;top=0;left=0;bottom=0;right=0;pointerEvents=1;whiteSpace=wrap;" vertex="1" parent="IzR-FZCqbxqnZNjVjUYu-114">
          <mxGeometry x="115" width="95" height="50" as="geometry">
            <mxRectangle width="95" height="50" as="alternateBounds" />
          </mxGeometry>
        </mxCell>
        <mxCell id="IzR-FZCqbxqnZNjVjUYu-118" value="..&lt;br&gt;" style="shape=partialRectangle;html=1;whiteSpace=wrap;connectable=0;strokeColor=inherit;overflow=hidden;fillColor=none;top=0;left=0;bottom=0;right=0;pointerEvents=1;" vertex="1" parent="IzR-FZCqbxqnZNjVjUYu-114">
          <mxGeometry x="210" width="20" height="50" as="geometry">
            <mxRectangle width="20" height="50" as="alternateBounds" />
          </mxGeometry>
        </mxCell>
        <mxCell id="IzR-FZCqbxqnZNjVjUYu-119" value="" style="endArrow=classic;html=1;rounded=0;exitX=0.475;exitY=1.043;exitDx=0;exitDy=0;exitPerimeter=0;" edge="1" parent="1">
          <mxGeometry width="50" height="50" relative="1" as="geometry">
            <mxPoint x="160.25" y="370.0000000000001" as="sourcePoint" />
            <mxPoint x="160" y="417.85" as="targetPoint" />
            <Array as="points">
              <mxPoint x="160" y="407.85" />
            </Array>
          </mxGeometry>
        </mxCell>
        <mxCell id="IzR-FZCqbxqnZNjVjUYu-121" value="MAF" style="swimlane;fontStyle=0;childLayout=stackLayout;horizontal=1;startSize=20;fillColor=#d0cee2;horizontalStack=0;resizeParent=1;resizeParentMax=0;resizeLast=0;collapsible=0;marginBottom=0;swimlaneFillColor=#ffffff;whiteSpace=wrap;strokeColor=#56517e;" vertex="1" parent="1">
          <mxGeometry x="40" y="630" width="230" height="120" as="geometry" />
        </mxCell>
        <mxCell id="IzR-FZCqbxqnZNjVjUYu-122" value="" style="shape=table;startSize=0;container=1;collapsible=0;childLayout=tableLayout;" vertex="1" parent="IzR-FZCqbxqnZNjVjUYu-121">
          <mxGeometry y="20" width="230" height="100" as="geometry" />
        </mxCell>
        <mxCell id="IzR-FZCqbxqnZNjVjUYu-123" value="" style="shape=tableRow;horizontal=0;startSize=0;swimlaneHead=0;swimlaneBody=0;strokeColor=inherit;top=0;left=0;bottom=0;right=0;collapsible=0;dropTarget=0;fillColor=none;points=[[0,0.5],[1,0.5]];portConstraint=eastwest;" vertex="1" parent="IzR-FZCqbxqnZNjVjUYu-122">
          <mxGeometry width="230" height="50" as="geometry" />
        </mxCell>
        <mxCell id="IzR-FZCqbxqnZNjVjUYu-124" value="Gene" style="shape=partialRectangle;html=1;connectable=0;strokeColor=inherit;overflow=hidden;fillColor=none;top=0;left=0;bottom=0;right=0;pointerEvents=1;whiteSpace=wrap;" vertex="1" parent="IzR-FZCqbxqnZNjVjUYu-123">
          <mxGeometry width="58" height="50" as="geometry">
            <mxRectangle width="58" height="50" as="alternateBounds" />
          </mxGeometry>
        </mxCell>
        <mxCell id="IzR-FZCqbxqnZNjVjUYu-125" value="HGVSp" style="shape=partialRectangle;html=1;whiteSpace=wrap;connectable=0;strokeColor=inherit;overflow=hidden;fillColor=none;top=0;left=0;bottom=0;right=0;pointerEvents=1;" vertex="1" parent="IzR-FZCqbxqnZNjVjUYu-123">
          <mxGeometry x="58" width="57" height="50" as="geometry">
            <mxRectangle width="57" height="50" as="alternateBounds" />
          </mxGeometry>
        </mxCell>
        <mxCell id="IzR-FZCqbxqnZNjVjUYu-126" value="&lt;p style=&quot;text-align: start; margin: 0in; font-family: Slack-Lato; font-size: 11.25pt; color: rgb(32, 31, 30);&quot;&gt;Amino_acids&lt;/p&gt;" style="shape=partialRectangle;html=1;whiteSpace=wrap;connectable=0;strokeColor=inherit;overflow=hidden;fillColor=none;top=0;left=0;bottom=0;right=0;pointerEvents=1;" vertex="1" parent="IzR-FZCqbxqnZNjVjUYu-123">
          <mxGeometry x="115" width="95" height="50" as="geometry">
            <mxRectangle width="95" height="50" as="alternateBounds" />
          </mxGeometry>
        </mxCell>
        <mxCell id="IzR-FZCqbxqnZNjVjUYu-127" value="..." style="shape=partialRectangle;html=1;whiteSpace=wrap;connectable=0;strokeColor=inherit;overflow=hidden;fillColor=none;top=0;left=0;bottom=0;right=0;pointerEvents=1;" vertex="1" parent="IzR-FZCqbxqnZNjVjUYu-123">
          <mxGeometry x="210" width="20" height="50" as="geometry">
            <mxRectangle width="20" height="50" as="alternateBounds" />
          </mxGeometry>
        </mxCell>
        <mxCell id="IzR-FZCqbxqnZNjVjUYu-128" value="" style="shape=tableRow;horizontal=0;startSize=0;swimlaneHead=0;swimlaneBody=0;strokeColor=inherit;top=0;left=0;bottom=0;right=0;collapsible=0;dropTarget=0;fillColor=none;points=[[0,0.5],[1,0.5]];portConstraint=eastwest;" vertex="1" parent="IzR-FZCqbxqnZNjVjUYu-122">
          <mxGeometry y="50" width="230" height="50" as="geometry" />
        </mxCell>
        <mxCell id="IzR-FZCqbxqnZNjVjUYu-129" value="TF" style="shape=partialRectangle;html=1;whiteSpace=wrap;connectable=0;strokeColor=inherit;overflow=hidden;fillColor=none;top=0;left=0;bottom=0;right=0;pointerEvents=1;" vertex="1" parent="IzR-FZCqbxqnZNjVjUYu-128">
          <mxGeometry width="58" height="50" as="geometry">
            <mxRectangle width="58" height="50" as="alternateBounds" />
          </mxGeometry>
        </mxCell>
        <mxCell id="IzR-FZCqbxqnZNjVjUYu-130" value="p.=" style="shape=partialRectangle;html=1;whiteSpace=wrap;connectable=0;strokeColor=inherit;overflow=hidden;fillColor=none;top=0;left=0;bottom=0;right=0;pointerEvents=1;" vertex="1" parent="IzR-FZCqbxqnZNjVjUYu-128">
          <mxGeometry x="58" width="57" height="50" as="geometry">
            <mxRectangle width="57" height="50" as="alternateBounds" />
          </mxGeometry>
        </mxCell>
        <mxCell id="IzR-FZCqbxqnZNjVjUYu-131" value=".." style="shape=partialRectangle;html=1;connectable=0;strokeColor=inherit;overflow=hidden;fillColor=none;top=0;left=0;bottom=0;right=0;pointerEvents=1;whiteSpace=wrap;" vertex="1" parent="IzR-FZCqbxqnZNjVjUYu-128">
          <mxGeometry x="115" width="95" height="50" as="geometry">
            <mxRectangle width="95" height="50" as="alternateBounds" />
          </mxGeometry>
        </mxCell>
        <mxCell id="IzR-FZCqbxqnZNjVjUYu-132" value="..&lt;br&gt;" style="shape=partialRectangle;html=1;whiteSpace=wrap;connectable=0;strokeColor=inherit;overflow=hidden;fillColor=none;top=0;left=0;bottom=0;right=0;pointerEvents=1;" vertex="1" parent="IzR-FZCqbxqnZNjVjUYu-128">
          <mxGeometry x="210" width="20" height="50" as="geometry">
            <mxRectangle width="20" height="50" as="alternateBounds" />
          </mxGeometry>
        </mxCell>
        <mxCell id="IzR-FZCqbxqnZNjVjUYu-157" value="" style="endArrow=classic;html=1;rounded=0;exitX=0.475;exitY=1.043;exitDx=0;exitDy=0;exitPerimeter=0;" edge="1" parent="1">
          <mxGeometry width="50" height="50" relative="1" as="geometry">
            <mxPoint x="160.25" y="560.0000000000001" as="sourcePoint" />
            <mxPoint x="160" y="607.85" as="targetPoint" />
            <Array as="points">
              <mxPoint x="160" y="597.85" />
            </Array>
          </mxGeometry>
        </mxCell>
        <mxCell id="IzR-FZCqbxqnZNjVjUYu-160" value="&lt;div&gt;&lt;font size=&quot;1&quot; face=&quot;Helvetica Neue&quot;&gt;&lt;br&gt;&lt;/font&gt;&lt;/div&gt;&lt;p style=&quot;margin: 0px; font-stretch: normal; font-size: 10px; line-height: normal; font-family: &amp;quot;Helvetica Neue&amp;quot;; font-size-adjust: none; font-kerning: auto; font-variant-alternates: normal; font-variant-ligatures: normal; font-variant-numeric: normal; font-variant-east-asian: normal; font-variant-position: normal; font-feature-settings: normal; font-optical-sizing: auto; font-variation-settings: normal;&quot;&gt;&lt;/p&gt;&lt;ol&gt;&lt;li&gt;GATA3&lt;br&gt;&lt;/li&gt;&lt;li&gt;RUNX1&lt;br&gt;&lt;/li&gt;&lt;li&gt;TBX3&lt;br&gt;&lt;/li&gt;&lt;li&gt;FOXA1&lt;br&gt;&lt;/li&gt;&lt;li&gt;ZFP36L1&lt;br&gt;&lt;/li&gt;&lt;li&gt;XBP1&lt;br&gt;&lt;/li&gt;&lt;li&gt;TSC22D3&lt;br&gt;&lt;/li&gt;&lt;li&gt;MAX&lt;/li&gt;&lt;li&gt;CTCF&lt;br&gt;&lt;/li&gt;&lt;li&gt;&lt;p style=&quot;margin: 0px; font-style: normal; font-variant-caps: normal; font-stretch: normal; font-size: 10px; line-height: normal; font-family: &amp;quot;Helvetica Neue&amp;quot;; font-size-adjust: none; font-kerning: auto; font-variant-alternates: normal; font-variant-ligatures: normal; font-variant-numeric: normal; font-variant-east-asian: normal; font-variant-position: normal; font-feature-settings: normal; font-optical-sizing: auto; font-variation-settings: normal;&quot;&gt;TFAP4&lt;/p&gt;&lt;/li&gt;&lt;/ol&gt;&lt;p&gt;&lt;/p&gt;" style="text;strokeColor=#b85450;fillColor=#f8cecc;html=1;whiteSpace=wrap;verticalAlign=middle;overflow=hidden;rounded=0;glass=0;shadow=1;" vertex="1" parent="1">
          <mxGeometry x="105" y="820" width="100" height="180" as="geometry" />
        </mxCell>
        <mxCell id="IzR-FZCqbxqnZNjVjUYu-161" value="TFs with highest mutational load" style="text;strokeColor=none;align=center;fillColor=none;html=1;verticalAlign=middle;whiteSpace=wrap;rounded=0;" vertex="1" parent="1">
          <mxGeometry x="105" y="820" width="100" height="30" as="geometry" />
        </mxCell>
      </root>
    </mxGraphModel>
  </diagram>
</mxfile>
